<?xml version="1.0" encoding="UTF-8" standalone="no"?>
<!DOCTYPE svg PUBLIC "-//W3C//DTD SVG 1.1//EN"
 "http://www.w3.org/Graphics/SVG/1.1/DTD/svg11.dtd">
<!-- Generated by graphviz version 2.43.0 (0)
 -->
<!-- Title: %3 Pages: 1 -->
<svg width="590pt" height="765pt"
 viewBox="0.00 0.00 590.36 765.44" xmlns="http://www.w3.org/2000/svg" xmlns:xlink="http://www.w3.org/1999/xlink">
<g id="graph0" class="graph" transform="scale(1 1) rotate(0) translate(28.8 736.64)">
<title>%3</title>
<polygon fill="white" stroke="transparent" points="-28.8,28.8 -28.8,-736.64 561.56,-736.64 561.56,28.8 -28.8,28.8"/>
<text text-anchor="middle" x="266.38" y="-675.04" font-family="Helvetica,sans-Serif" font-size="36.00">roverd</text>
<!-- roverd -->
<g id="node1" class="node">
<title>roverd</title>
<polygon fill="#5397c8" stroke="black" points="291.97,-299.23 291.97,-337.23 345.97,-337.23 345.97,-299.23 291.97,-299.23"/>
<text text-anchor="middle" x="318.97" y="-325.23" font-family="monospace" font-size="10.00">crate</text>
<polyline fill="none" stroke="black" points="291.97,-318.23 345.97,-318.23 "/>
<text text-anchor="middle" x="318.97" y="-306.23" font-family="monospace" font-size="10.00">roverd</text>
</g>
<!-- roverd::apis -->
<g id="node2" class="node">
<title>roverd::apis</title>
<polygon fill="#f8c04c" stroke="black" points="225.76,-475.25 225.76,-513.25 326.76,-513.25 326.76,-475.25 225.76,-475.25"/>
<text text-anchor="middle" x="276.26" y="-501.25" font-family="monospace" font-size="10.00">pub(crate) mod</text>
<polyline fill="none" stroke="black" points="225.76,-494.25 326.76,-494.25 "/>
<text text-anchor="middle" x="276.26" y="-482.25" font-family="monospace" font-size="10.00">apis</text>
</g>
<!-- roverd&#45;&gt;roverd::apis -->
<g id="edge1" class="edge">
<title>roverd&#45;&gt;roverd::apis</title>
<path fill="none" stroke="#000000" d="M314.32,-337.4C306.84,-368.22 292.1,-428.97 283.32,-465.16"/>
<polygon fill="#000000" stroke="#000000" points="279.86,-464.56 280.91,-475.1 286.67,-466.21 279.86,-464.56"/>
<text text-anchor="middle" x="286.32" y="-404.28" font-family="monospace" font-size="10.00">owns</text>
</g>
<!-- roverd::app -->
<g id="node6" class="node">
<title>roverd::app</title>
<polygon fill="#f8c04c" stroke="black" points="161.42,-153.51 161.42,-191.51 262.42,-191.51 262.42,-153.51 161.42,-153.51"/>
<text text-anchor="middle" x="211.92" y="-179.51" font-family="monospace" font-size="10.00">pub(crate) mod</text>
<polyline fill="none" stroke="black" points="161.42,-172.51 262.42,-172.51 "/>
<text text-anchor="middle" x="211.92" y="-160.51" font-family="monospace" font-size="10.00">app</text>
</g>
<!-- roverd&#45;&gt;roverd::app -->
<g id="edge2" class="edge">
<title>roverd&#45;&gt;roverd::app</title>
<path fill="none" stroke="#000000" d="M304.98,-299.18C286.3,-273.76 253.13,-228.6 231.85,-199.63"/>
<polygon fill="#000000" stroke="#000000" points="234.66,-197.55 225.92,-191.56 229.02,-201.69 234.66,-197.55"/>
<text text-anchor="middle" x="255.91" y="-252.41" font-family="monospace" font-size="10.00">owns</text>
</g>
<!-- roverd::command -->
<g id="node13" class="node">
<title>roverd::command</title>
<polygon fill="#f8c04c" stroke="black" points="427.24,-338.56 427.24,-376.56 528.24,-376.56 528.24,-338.56 427.24,-338.56"/>
<text text-anchor="middle" x="477.74" y="-364.56" font-family="monospace" font-size="10.00">pub(crate) mod</text>
<polyline fill="none" stroke="black" points="427.24,-357.56 528.24,-357.56 "/>
<text text-anchor="middle" x="477.74" y="-345.56" font-family="monospace" font-size="10.00">command</text>
</g>
<!-- roverd&#45;&gt;roverd::command -->
<g id="edge3" class="edge">
<title>roverd&#45;&gt;roverd::command</title>
<path fill="none" stroke="#000000" d="M346.27,-324.99C365.75,-329.82 392.72,-336.5 417.17,-342.55"/>
<polygon fill="#000000" stroke="#000000" points="416.56,-346.01 427.11,-345.01 418.24,-339.21 416.56,-346.01"/>
<text text-anchor="middle" x="369.22" y="-336.77" font-family="monospace" font-size="10.00">owns</text>
</g>
<!-- roverd::constants -->
<g id="node14" class="node">
<title>roverd::constants</title>
<polygon fill="#f8c04c" stroke="black" points="359.15,-400 359.15,-438 460.15,-438 460.15,-400 359.15,-400"/>
<text text-anchor="middle" x="409.65" y="-426" font-family="monospace" font-size="10.00">pub(crate) mod</text>
<polyline fill="none" stroke="black" points="359.15,-419 460.15,-419 "/>
<text text-anchor="middle" x="409.65" y="-407" font-family="monospace" font-size="10.00">constants</text>
</g>
<!-- roverd&#45;&gt;roverd::constants -->
<g id="edge4" class="edge">
<title>roverd&#45;&gt;roverd::constants</title>
<path fill="none" stroke="#000000" d="M336.46,-337.66C350.47,-353.23 370.28,-375.25 385.76,-392.45"/>
<polygon fill="#000000" stroke="#000000" points="383.24,-394.88 392.53,-399.97 388.44,-390.2 383.24,-394.88"/>
<text text-anchor="middle" x="348.61" y="-368.05" font-family="monospace" font-size="10.00">owns</text>
</g>
<!-- roverd::error -->
<g id="node15" class="node">
<title>roverd::error</title>
<polygon fill="#f8c04c" stroke="black" points="150.81,-355.26 150.81,-393.26 251.81,-393.26 251.81,-355.26 150.81,-355.26"/>
<text text-anchor="middle" x="201.31" y="-381.26" font-family="monospace" font-size="10.00">pub(crate) mod</text>
<polyline fill="none" stroke="black" points="150.81,-374.26 251.81,-374.26 "/>
<text text-anchor="middle" x="201.31" y="-362.26" font-family="monospace" font-size="10.00">error</text>
</g>
<!-- roverd&#45;&gt;roverd::error -->
<g id="edge5" class="edge">
<title>roverd&#45;&gt;roverd::error</title>
<path fill="none" stroke="#000000" d="M291.68,-331.23C279.43,-337.06 264.59,-344.13 250.51,-350.84"/>
<polygon fill="#000000" stroke="#000000" points="248.92,-347.72 241.39,-355.18 251.93,-354.04 248.92,-347.72"/>
<text text-anchor="middle" x="258.59" y="-344.03" font-family="monospace" font-size="10.00">owns</text>
</g>
<!-- roverd::log -->
<g id="node16" class="node">
<title>roverd::log</title>
<polygon fill="#f8c04c" stroke="black" points="362.7,-197.86 362.7,-235.86 463.7,-235.86 463.7,-197.86 362.7,-197.86"/>
<text text-anchor="middle" x="413.2" y="-223.86" font-family="monospace" font-size="10.00">pub(crate) mod</text>
<polyline fill="none" stroke="black" points="362.7,-216.86 463.7,-216.86 "/>
<text text-anchor="middle" x="413.2" y="-204.86" font-family="monospace" font-size="10.00">log</text>
</g>
<!-- roverd&#45;&gt;roverd::log -->
<g id="edge6" class="edge">
<title>roverd&#45;&gt;roverd::log</title>
<path fill="none" stroke="#000000" d="M336.7,-299.16C351.21,-283.55 371.93,-261.26 388.14,-243.82"/>
<polygon fill="#000000" stroke="#000000" points="390.99,-245.89 395.24,-236.19 385.86,-241.13 390.99,-245.89"/>
<text text-anchor="middle" x="349.92" y="-274.49" font-family="monospace" font-size="10.00">owns</text>
</g>
<!-- roverd::util -->
<g id="node17" class="node">
<title>roverd::util</title>
<polygon fill="#f8c04c" stroke="black" points="431.76,-246.43 431.76,-284.43 532.76,-284.43 532.76,-246.43 431.76,-246.43"/>
<text text-anchor="middle" x="482.26" y="-272.43" font-family="monospace" font-size="10.00">pub(crate) mod</text>
<polyline fill="none" stroke="black" points="431.76,-265.43 532.76,-265.43 "/>
<text text-anchor="middle" x="482.26" y="-253.43" font-family="monospace" font-size="10.00">util</text>
</g>
<!-- roverd&#45;&gt;roverd::util -->
<g id="edge7" class="edge">
<title>roverd&#45;&gt;roverd::util</title>
<path fill="none" stroke="#000000" d="M346.3,-309.39C366.91,-302.73 395.97,-293.33 421.93,-284.94"/>
<polygon fill="#000000" stroke="#000000" points="423.27,-288.18 431.71,-281.77 421.12,-281.52 423.27,-288.18"/>
<text text-anchor="middle" x="371.62" y="-300.16" font-family="monospace" font-size="10.00">owns</text>
</g>
<!-- roverd::apis::health -->
<g id="node3" class="node">
<title>roverd::apis::health</title>
<polygon fill="#db5367" stroke="black" points="82.17,-547.22 82.17,-585.22 177.17,-585.22 177.17,-547.22 82.17,-547.22"/>
<text text-anchor="middle" x="129.67" y="-573.22" font-family="monospace" font-size="10.00">pub(self) mod</text>
<polyline fill="none" stroke="black" points="82.17,-566.22 177.17,-566.22 "/>
<text text-anchor="middle" x="129.67" y="-554.22" font-family="monospace" font-size="10.00">apis::health</text>
</g>
<!-- roverd::apis&#45;&gt;roverd::apis::health -->
<g id="edge8" class="edge">
<title>roverd::apis&#45;&gt;roverd::apis::health</title>
<path fill="none" stroke="#000000" d="M237.36,-513.35C218.98,-522.37 196.87,-533.23 177.48,-542.75"/>
<polygon fill="#000000" stroke="#000000" points="175.93,-539.61 168.5,-547.16 179.02,-545.89 175.93,-539.61"/>
<text text-anchor="middle" x="194.92" y="-531.05" font-family="monospace" font-size="10.00">owns</text>
</g>
<!-- roverd::apis::pipeline -->
<g id="node4" class="node">
<title>roverd::apis::pipeline</title>
<polygon fill="#db5367" stroke="black" points="196.46,-621.34 196.46,-659.34 297.46,-659.34 297.46,-621.34 196.46,-621.34"/>
<text text-anchor="middle" x="246.96" y="-647.34" font-family="monospace" font-size="10.00">pub(self) mod</text>
<polyline fill="none" stroke="black" points="196.46,-640.34 297.46,-640.34 "/>
<text text-anchor="middle" x="246.96" y="-628.34" font-family="monospace" font-size="10.00">apis::pipeline</text>
</g>
<!-- roverd::apis&#45;&gt;roverd::apis::pipeline -->
<g id="edge9" class="edge">
<title>roverd::apis&#45;&gt;roverd::apis::pipeline</title>
<path fill="none" stroke="#000000" d="M272.43,-513.35C267.43,-538.28 258.63,-582.17 252.79,-611.25"/>
<polygon fill="#000000" stroke="#000000" points="249.33,-610.74 250.79,-621.23 256.19,-612.12 249.33,-610.74"/>
<text text-anchor="middle" x="250.11" y="-565.3" font-family="monospace" font-size="10.00">owns</text>
</g>
<!-- roverd::apis::services -->
<g id="node5" class="node">
<title>roverd::apis::services</title>
<polygon fill="#db5367" stroke="black" points="340.17,-591.59 340.17,-629.59 441.17,-629.59 441.17,-591.59 340.17,-591.59"/>
<text text-anchor="middle" x="390.67" y="-617.59" font-family="monospace" font-size="10.00">pub(self) mod</text>
<polyline fill="none" stroke="black" points="340.17,-610.59 441.17,-610.59 "/>
<text text-anchor="middle" x="390.67" y="-598.59" font-family="monospace" font-size="10.00">apis::services</text>
</g>
<!-- roverd::apis&#45;&gt;roverd::apis::services -->
<g id="edge10" class="edge">
<title>roverd::apis&#45;&gt;roverd::apis::services</title>
<path fill="none" stroke="#000000" d="M295.15,-513.46C314.11,-532.75 343.47,-562.6 364.63,-584.12"/>
<polygon fill="#000000" stroke="#000000" points="362.24,-586.68 371.75,-591.35 367.23,-581.77 362.24,-586.68"/>
<text text-anchor="middle" x="317.39" y="-551.79" font-family="monospace" font-size="10.00">owns</text>
</g>
<!-- roverd::app::bootspec -->
<g id="node7" class="node">
<title>roverd::app::bootspec</title>
<polygon fill="#db5367" stroke="black" points="0,-149.13 0,-187.13 95,-187.13 95,-149.13 0,-149.13"/>
<text text-anchor="middle" x="47.5" y="-175.13" font-family="monospace" font-size="10.00">pub(self) mod</text>
<polyline fill="none" stroke="black" points="0,-168.13 95,-168.13 "/>
<text text-anchor="middle" x="47.5" y="-156.13" font-family="monospace" font-size="10.00">app::bootspec</text>
</g>
<!-- roverd::app&#45;&gt;roverd::app::bootspec -->
<g id="edge11" class="edge">
<title>roverd::app&#45;&gt;roverd::app::bootspec</title>
<path fill="none" stroke="#000000" d="M161.25,-171.16C143.58,-170.69 123.61,-170.16 105.4,-169.67"/>
<polygon fill="#000000" stroke="#000000" points="105.29,-166.17 95.2,-169.4 105.1,-173.17 105.29,-166.17"/>
<text text-anchor="middle" x="120.82" y="-173.42" font-family="monospace" font-size="10.00">owns</text>
</g>
<!-- roverd::app::daemons -->
<g id="node8" class="node">
<title>roverd::app::daemons</title>
<polygon fill="#81c169" stroke="black" points="292.24,-51.81 292.24,-89.81 381.24,-89.81 381.24,-51.81 292.24,-51.81"/>
<text text-anchor="middle" x="336.74" y="-77.81" font-family="monospace" font-size="10.00">pub mod</text>
<polyline fill="none" stroke="black" points="292.24,-70.81 381.24,-70.81 "/>
<text text-anchor="middle" x="336.74" y="-58.81" font-family="monospace" font-size="10.00">app::daemons</text>
</g>
<!-- roverd::app&#45;&gt;roverd::app::daemons -->
<g id="edge12" class="edge">
<title>roverd::app&#45;&gt;roverd::app::daemons</title>
<path fill="none" stroke="#000000" d="M235.4,-153.38C255.19,-137.26 283.67,-114.05 305.4,-96.34"/>
<polygon fill="#000000" stroke="#000000" points="307.83,-98.88 313.37,-89.85 303.41,-93.45 307.83,-98.88"/>
<text text-anchor="middle" x="257.9" y="-127.86" font-family="monospace" font-size="10.00">owns</text>
</g>
<!-- roverd::app::info -->
<g id="node9" class="node">
<title>roverd::app::info</title>
<polygon fill="#81c169" stroke="black" points="51.12,-61.29 51.12,-99.29 122.12,-99.29 122.12,-61.29 51.12,-61.29"/>
<text text-anchor="middle" x="86.62" y="-87.29" font-family="monospace" font-size="10.00">pub mod</text>
<polyline fill="none" stroke="black" points="51.12,-80.29 122.12,-80.29 "/>
<text text-anchor="middle" x="86.62" y="-68.29" font-family="monospace" font-size="10.00">app::info</text>
</g>
<!-- roverd::app&#45;&gt;roverd::app::info -->
<g id="edge13" class="edge">
<title>roverd::app&#45;&gt;roverd::app::info</title>
<path fill="none" stroke="#000000" d="M185.96,-153.4C167.06,-139.49 141.28,-120.51 120.72,-105.38"/>
<polygon fill="#000000" stroke="#000000" points="122.68,-102.48 112.55,-99.37 118.53,-108.12 122.68,-102.48"/>
<text text-anchor="middle" x="140.84" y="-132.39" font-family="monospace" font-size="10.00">owns</text>
</g>
<!-- roverd::app::process -->
<g id="node10" class="node">
<title>roverd::app::process</title>
<polygon fill="#81c169" stroke="black" points="220.59,-0.5 220.59,-38.5 309.59,-38.5 309.59,-0.5 220.59,-0.5"/>
<text text-anchor="middle" x="265.09" y="-26.5" font-family="monospace" font-size="10.00">pub mod</text>
<polyline fill="none" stroke="black" points="220.59,-19.5 309.59,-19.5 "/>
<text text-anchor="middle" x="265.09" y="-7.5" font-family="monospace" font-size="10.00">app::process</text>
</g>
<!-- roverd::app&#45;&gt;roverd::app::process -->
<g id="edge14" class="edge">
<title>roverd::app&#45;&gt;roverd::app::process</title>
<path fill="none" stroke="#000000" d="M218.55,-153.44C227.7,-127.1 244.29,-79.34 254.99,-48.55"/>
<polygon fill="#000000" stroke="#000000" points="258.4,-49.4 258.38,-38.81 251.79,-47.11 258.4,-49.4"/>
<text text-anchor="middle" x="224.27" y="-103.99" font-family="monospace" font-size="10.00">owns</text>
</g>
<!-- roverd::app::service -->
<g id="node11" class="node">
<title>roverd::app::service</title>
<polygon fill="#81c169" stroke="black" points="123.58,-5.07 123.58,-43.07 212.58,-43.07 212.58,-5.07 123.58,-5.07"/>
<text text-anchor="middle" x="168.08" y="-31.07" font-family="monospace" font-size="10.00">pub mod</text>
<polyline fill="none" stroke="black" points="123.58,-24.07 212.58,-24.07 "/>
<text text-anchor="middle" x="168.08" y="-12.07" font-family="monospace" font-size="10.00">app::service</text>
</g>
<!-- roverd::app&#45;&gt;roverd::app::service -->
<g id="edge15" class="edge">
<title>roverd::app&#45;&gt;roverd::app::service</title>
<path fill="none" stroke="#000000" d="M206.28,-153.41C198.75,-127.91 185.35,-82.54 176.58,-52.88"/>
<polygon fill="#000000" stroke="#000000" points="179.89,-51.7 173.7,-43.1 173.17,-53.68 179.89,-51.7"/>
<text text-anchor="middle" x="178.93" y="-106.14" font-family="monospace" font-size="10.00">owns</text>
</g>
<!-- roverd::app::state -->
<g id="node12" class="node">
<title>roverd::app::state</title>
<polygon fill="#81c169" stroke="black" points="38.11,-231.77 38.11,-269.77 115.11,-269.77 115.11,-231.77 38.11,-231.77"/>
<text text-anchor="middle" x="76.61" y="-257.77" font-family="monospace" font-size="10.00">pub mod</text>
<polyline fill="none" stroke="black" points="38.11,-250.77 115.11,-250.77 "/>
<text text-anchor="middle" x="76.61" y="-238.77" font-family="monospace" font-size="10.00">app::state</text>
</g>
<!-- roverd::app&#45;&gt;roverd::app::state -->
<g id="edge16" class="edge">
<title>roverd::app&#45;&gt;roverd::app::state</title>
<path fill="none" stroke="#000000" d="M178.82,-191.65C160.72,-202.12 138.11,-215.2 118.75,-226.39"/>
<polygon fill="#000000" stroke="#000000" points="116.74,-223.51 109.84,-231.55 120.25,-229.57 116.74,-223.51"/>
<text text-anchor="middle" x="136.29" y="-212.02" font-family="monospace" font-size="10.00">owns</text>
</g>
</g>
</svg>
